<mxfile host="app.diagrams.net" agent="Mozilla/5.0 (Windows NT 10.0; Win64; x64) AppleWebKit/537.36 (KHTML, like Gecko) Chrome/134.0.0.0 Safari/537.36 Edg/134.0.0.0" version="26.1.3">
  <diagram name="Page-1" id="c589N-atLzrc5FjcKkDk">
    <mxGraphModel dx="1106" dy="601" grid="1" gridSize="10" guides="1" tooltips="1" connect="1" arrows="1" fold="1" page="1" pageScale="1" pageWidth="850" pageHeight="1100" math="0" shadow="0">
      <root>
        <mxCell id="0" />
        <mxCell id="1" parent="0" />
        <mxCell id="iqm7z3KmibVWENo8OHtI-2" value="" style="shape=image;html=1;verticalAlign=top;verticalLabelPosition=bottom;labelBackgroundColor=default;imageAspect=0;aspect=fixed;image=https://cdn1.iconfinder.com/data/icons/100-basic-for-user-interface/32/29-Screen-128.png;fontColor=#E1D5E7;textShadow=1;" vertex="1" parent="1">
          <mxGeometry x="705" y="170" width="130" height="130" as="geometry" />
        </mxCell>
        <mxCell id="iqm7z3KmibVWENo8OHtI-3" value="" style="shape=image;html=1;verticalAlign=top;verticalLabelPosition=bottom;labelBackgroundColor=#ffffff;imageAspect=0;aspect=fixed;image=https://cdn0.iconfinder.com/data/icons/iphone-7-airpods-icons/24/3d-touch-screen-128.png;fontColor=light-dark(#C3ABD0,#EDEDED);" vertex="1" parent="1">
          <mxGeometry x="741" y="191" width="58" height="58" as="geometry" />
        </mxCell>
        <mxCell id="iqm7z3KmibVWENo8OHtI-4" value="" style="rounded=1;whiteSpace=wrap;html=1;" vertex="1" parent="1">
          <mxGeometry x="440" y="80" width="200" height="280" as="geometry" />
        </mxCell>
        <mxCell id="iqm7z3KmibVWENo8OHtI-5" value="" style="shape=datastore;whiteSpace=wrap;html=1;fillColor=#dae8fc;strokeColor=#6c8ebf;" vertex="1" parent="1">
          <mxGeometry x="495.69" y="136" width="90" height="90" as="geometry" />
        </mxCell>
        <mxCell id="iqm7z3KmibVWENo8OHtI-6" value="" style="sketch=0;pointerEvents=1;shadow=0;dashed=0;html=1;strokeColor=none;fillColor=#434445;aspect=fixed;labelPosition=center;verticalLabelPosition=bottom;verticalAlign=top;align=center;outlineConnect=0;shape=mxgraph.vvd.ssd;" vertex="1" parent="1">
          <mxGeometry x="495.69" y="260" width="98.61" height="70" as="geometry" />
        </mxCell>
        <mxCell id="iqm7z3KmibVWENo8OHtI-7" value="InfluxDB" style="text;html=1;align=center;verticalAlign=middle;whiteSpace=wrap;rounded=0;fillColor=#dae8fc;strokeColor=#6c8ebf;" vertex="1" parent="1">
          <mxGeometry x="510" y="174" width="60" height="30" as="geometry" />
        </mxCell>
        <mxCell id="iqm7z3KmibVWENo8OHtI-8" value="Local SSD" style="text;html=1;align=center;verticalAlign=middle;whiteSpace=wrap;rounded=0;" vertex="1" parent="1">
          <mxGeometry x="515" y="230" width="60" height="30" as="geometry" />
        </mxCell>
        <mxCell id="iqm7z3KmibVWENo8OHtI-9" value="Multi-touch dashboard" style="text;html=1;align=center;verticalAlign=middle;whiteSpace=wrap;rounded=0;fillColor=#e1d5e7;strokeColor=#9673a6;" vertex="1" parent="1">
          <mxGeometry x="739" y="110" width="60" height="50" as="geometry" />
        </mxCell>
        <mxCell id="iqm7z3KmibVWENo8OHtI-10" value="" style="sketch=0;pointerEvents=1;shadow=0;dashed=0;html=1;strokeColor=none;fillColor=#005F4B;labelPosition=center;verticalLabelPosition=bottom;verticalAlign=top;align=center;outlineConnect=0;shape=mxgraph.veeam2.hardware_controller;" vertex="1" parent="1">
          <mxGeometry x="221" y="186" width="78" height="68" as="geometry" />
        </mxCell>
        <mxCell id="iqm7z3KmibVWENo8OHtI-11" value="ESP32 Microcontroller" style="text;html=1;align=center;verticalAlign=middle;whiteSpace=wrap;rounded=0;fillColor=#d5e8d4;strokeColor=#82b366;" vertex="1" parent="1">
          <mxGeometry x="210" y="130" width="140" height="50" as="geometry" />
        </mxCell>
        <mxCell id="iqm7z3KmibVWENo8OHtI-14" value="" style="rounded=1;whiteSpace=wrap;html=1;rotation=-90;" vertex="1" parent="1">
          <mxGeometry x="-52.5" y="157.5" width="280" height="115" as="geometry" />
        </mxCell>
        <mxCell id="iqm7z3KmibVWENo8OHtI-15" value="" style="shape=image;html=1;verticalAlign=top;verticalLabelPosition=bottom;labelBackgroundColor=#ffffff;imageAspect=0;aspect=fixed;image=https://cdn4.iconfinder.com/data/icons/success-filloutline/64/law-scale-justice-judge-balance-128.png" vertex="1" parent="1">
          <mxGeometry x="53.5" y="136" width="68" height="68" as="geometry" />
        </mxCell>
        <mxCell id="iqm7z3KmibVWENo8OHtI-16" value="" style="sketch=0;outlineConnect=0;fontColor=#232F3E;gradientColor=none;fillColor=#7AA116;strokeColor=none;dashed=0;verticalLabelPosition=bottom;verticalAlign=top;align=center;html=1;fontSize=12;fontStyle=0;aspect=fixed;pointerEvents=1;shape=mxgraph.aws4.iot_thing_temperature_sensor;" vertex="1" parent="1">
          <mxGeometry x="46.5" y="270" width="75" height="75" as="geometry" />
        </mxCell>
        <mxCell id="iqm7z3KmibVWENo8OHtI-17" value="I2C Sensors" style="text;html=1;align=center;verticalAlign=middle;whiteSpace=wrap;rounded=0;fillColor=#fff2cc;strokeColor=#d6b656;" vertex="1" parent="1">
          <mxGeometry x="46.5" y="40" width="80" height="30" as="geometry" />
        </mxCell>
        <mxCell id="iqm7z3KmibVWENo8OHtI-18" value="Water Temperature&amp;nbsp;&lt;div&gt;Sensor&lt;/div&gt;" style="text;html=1;align=center;verticalAlign=middle;whiteSpace=wrap;rounded=0;" vertex="1" parent="1">
          <mxGeometry x="22.5" y="110" width="130" height="10" as="geometry" />
        </mxCell>
        <mxCell id="iqm7z3KmibVWENo8OHtI-21" value="Water Pressure&amp;nbsp;&lt;div&gt;Sensor&lt;/div&gt;" style="text;html=1;align=center;verticalAlign=middle;whiteSpace=wrap;rounded=0;" vertex="1" parent="1">
          <mxGeometry x="37.5" y="238" width="100" height="30" as="geometry" />
        </mxCell>
        <mxCell id="iqm7z3KmibVWENo8OHtI-22" value="" style="endArrow=classic;html=1;rounded=0;entryX=0;entryY=0.5;entryDx=0;entryDy=0;" edge="1" parent="1" target="iqm7z3KmibVWENo8OHtI-4">
          <mxGeometry width="50" height="50" relative="1" as="geometry">
            <mxPoint x="299" y="220" as="sourcePoint" />
            <mxPoint x="349" y="170" as="targetPoint" />
          </mxGeometry>
        </mxCell>
        <mxCell id="iqm7z3KmibVWENo8OHtI-23" value="" style="endArrow=classic;html=1;rounded=0;exitX=0.718;exitY=0.983;exitDx=0;exitDy=0;exitPerimeter=0;" edge="1" parent="1" source="iqm7z3KmibVWENo8OHtI-14" target="iqm7z3KmibVWENo8OHtI-10">
          <mxGeometry width="50" height="50" relative="1" as="geometry">
            <mxPoint x="150" y="150" as="sourcePoint" />
            <mxPoint x="210" y="230" as="targetPoint" />
            <Array as="points">
              <mxPoint x="160" y="154" />
              <mxPoint x="160" y="220" />
            </Array>
          </mxGeometry>
        </mxCell>
        <mxCell id="iqm7z3KmibVWENo8OHtI-24" value="" style="endArrow=classic;html=1;rounded=0;exitX=0.171;exitY=1;exitDx=0;exitDy=0;exitPerimeter=0;" edge="1" parent="1" source="iqm7z3KmibVWENo8OHtI-14">
          <mxGeometry width="50" height="50" relative="1" as="geometry">
            <mxPoint x="153" y="164" as="sourcePoint" />
            <mxPoint x="220" y="230" as="targetPoint" />
            <Array as="points">
              <mxPoint x="160" y="307" />
              <mxPoint x="160" y="230" />
            </Array>
          </mxGeometry>
        </mxCell>
        <mxCell id="iqm7z3KmibVWENo8OHtI-26" value="Sensor&amp;nbsp;&lt;div&gt;Data&lt;/div&gt;" style="text;html=1;align=center;verticalAlign=middle;whiteSpace=wrap;rounded=0;fillColor=#f5f5f5;fontColor=#333333;strokeColor=#666666;" vertex="1" parent="1">
          <mxGeometry x="160" y="186" width="60" height="30" as="geometry" />
        </mxCell>
        <mxCell id="iqm7z3KmibVWENo8OHtI-27" value="Sensor&amp;nbsp;&lt;div&gt;Data&lt;/div&gt;" style="text;html=1;align=center;verticalAlign=middle;whiteSpace=wrap;rounded=0;fillColor=#f5f5f5;fontColor=#333333;strokeColor=#666666;" vertex="1" parent="1">
          <mxGeometry x="171" y="240" width="50" height="30" as="geometry" />
        </mxCell>
        <mxCell id="iqm7z3KmibVWENo8OHtI-28" value="Processed Data" style="text;html=1;align=center;verticalAlign=middle;whiteSpace=wrap;rounded=0;fillColor=#f5f5f5;fontColor=#333333;strokeColor=#666666;" vertex="1" parent="1">
          <mxGeometry x="330" y="224" width="60" height="30" as="geometry" />
        </mxCell>
        <mxCell id="iqm7z3KmibVWENo8OHtI-29" value="Rapberry PI 5" style="text;html=1;align=center;verticalAlign=middle;whiteSpace=wrap;rounded=0;fillColor=#f8cecc;strokeColor=#b85450;" vertex="1" parent="1">
          <mxGeometry x="474.3" y="95" width="120" height="30" as="geometry" />
        </mxCell>
        <mxCell id="iqm7z3KmibVWENo8OHtI-30" value="" style="shape=image;html=1;verticalAlign=top;verticalLabelPosition=bottom;labelBackgroundColor=#ffffff;imageAspect=0;aspect=fixed;image=https://cdn1.iconfinder.com/data/icons/fruit-136/64/Fruit_iconfree_Filled_Outline_raspberry-healthy-organic-food-fruit_icon-128.png" vertex="1" parent="1">
          <mxGeometry x="450" y="90" width="40" height="40" as="geometry" />
        </mxCell>
        <mxCell id="iqm7z3KmibVWENo8OHtI-32" value="" style="endArrow=classic;startArrow=classic;html=1;rounded=0;entryX=0.008;entryY=0.408;entryDx=0;entryDy=0;entryPerimeter=0;" edge="1" parent="1" target="iqm7z3KmibVWENo8OHtI-2">
          <mxGeometry width="50" height="50" relative="1" as="geometry">
            <mxPoint x="640" y="223" as="sourcePoint" />
            <mxPoint x="740" y="400" as="targetPoint" />
          </mxGeometry>
        </mxCell>
      </root>
    </mxGraphModel>
  </diagram>
</mxfile>
